<svg width="115" height="142" viewBox="0 0 115 142" fill="none" xmlns="http://www.w3.org/2000/svg">
<rect x="43" y="77" width="29" height="10" fill="#472510"/>
<path d="M57.5862 92.2347L57.5 92.2663L57.4138 92.2347L43.1244 86.9847L43.2106 86.5H71.7894L71.8756 86.9847L57.5862 92.2347Z" fill="#472510" stroke="#472510" stroke-width="0.5"/>
<ellipse cx="27.5" cy="46.5" rx="5.5" ry="6.5" fill="#59321A"/>
<ellipse cx="87.5" cy="46.5" rx="5.5" ry="6.5" fill="#59321A"/>
<rect x="29" y="22" width="57" height="60" rx="28.5" fill="#59321A"/>
<rect x="30.5" y="23.5" width="49" height="57" rx="24.5" fill="#7C4F33" stroke="#7C4F33" stroke-width="3"/>
<path d="M73 46.2888C73 47.5529 70.7614 46.7466 68 46.7466C65.2386 46.7466 63 47.5529 63 46.2888C63 45.0247 65.2386 44 68 44C70.7614 44 73 45.0247 73 46.2888Z" fill="#59321A"/>
<path d="M52 46.2888C52 47.5529 49.7614 46.7466 47 46.7466C44.2386 46.7466 42 47.5529 42 46.2888C42 45.0247 44.2386 44 47 44C49.7614 44 52 45.0247 52 46.2888Z" fill="#59321A"/>
<path d="M31 21.7012L29 40.3884V52H29.52C31.1334 52 32.4579 50.7239 32.5179 49.1116L32.8992 38.8738L33.4068 37.41C34.3647 34.6476 36.9386 32.7715 39.8616 32.7052L73.7728 31.9358C77.267 31.8565 80.4912 33.8074 82.0422 36.9396L83 38.8738L83.4048 49.5018C83.458 50.8966 84.6042 52 86 52L86.5 40.3884V28.3321V23.5096L87.2308 21.3069C87.9119 19.2542 90.2105 18.2314 92.1913 19.0998C92.7422 19.3413 93.2746 18.7266 92.9568 18.2159L91 15.0703L90.03 14.6025C89.1476 14.177 88.0869 14.4532 87.5242 15.255L83 21.7012L84 13.8647L86.084 7.33204C86.2898 6.68695 85.8085 6.02811 85.1313 6.02811H85.0557C83.8167 6.02811 82.7052 6.78975 82.258 7.94518L79.5 15.0703V10.8506L80.5336 5.03544C80.6952 4.12586 79.6426 3.50224 78.9225 4.08101L76.5 6.02811L73.5 15.0703V9.04217L76.1862 3.10475C76.3333 2.77969 76.0956 2.41124 75.7388 2.41124C74.351 2.41124 73.0662 3.14342 72.3588 4.33739L68.5 10.8506V6.02811L70.4991 1.20787C70.7376 0.632805 70.3149 0 69.6924 0H69.1328C67.1483 0 65.2669 0.883822 64 2.41124L57.3302 12.3446C56.7796 13.1646 55.5 12.7748 55.5 11.7871V10.8506L56.9187 6.28935C56.9719 6.11833 57.0701 5.96474 57.2029 5.84462L60.2058 3.12941C60.6354 2.74097 60.6462 2.06996 60.2293 1.6679L59.0013 0.483479C58.7 0.19292 58.2497 0.120713 57.8727 0.302519L53.5 2.41124L50.5 6.02811L43 15.0703L44.5 9.04217V8.20897C44.5 7.35353 43.4957 6.893 42.8475 7.45122L41 9.04217L35 21.7012V18.664C35 17.651 33.667 17.2801 33.1437 18.1475L31 21.7012Z" fill="#160B0B"/>
<path d="M43.002 65H73.0008V65C73.0008 69.142 69.643 72.4997 65.5011 72.4997H50.5017C46.3597 72.4997 43.002 69.142 43.002 65V65Z" fill="white"/>
<line x1="45" y1="68.5" x2="63.3017" y2="68.5" stroke="#E4CCCC"/>
<path d="M57.5 92.5L43 87L20.1758 91.7371C17.9272 92.2038 16.1423 93.9131 15.5786 96.1394L8.39178 124.527C7.43198 128.319 10.2975 132 14.2083 132H105.292C109.203 132 112.068 128.319 111.108 124.527L103.951 96.258C103.372 93.9706 101.506 92.235 99.183 91.8228L72 87L57.5 92.5Z" fill="#A56060" stroke="#A56060"/>
<rect x="21" y="81" width="77" height="51" rx="5" fill="#C4C4C4"/>
<path d="M21 122H98V127C98 129.761 95.7614 132 93 132H26C23.2386 132 21 129.761 21 127V122Z" fill="#595959"/>
<rect y="132" width="115" height="10" rx="3" fill="#AD9275"/>
</svg>
